<svg xmlns="http://www.w3.org/2000/svg" viewBox="-103 -1507 6168 1651" role="img" aria-label="tasur">
  <path fill="#194291" d="M718.08154296875 -1118.0V-859.11865234375H20.0V-1118ZM168.23974609375 -1384.0H516.9619140625V-342.440673828125Q516.9619140625 -297.841064453125 537.9617919921875 -276.26123046875Q558.961669921875 -254.681396484375 606.4013671875 -254.681396484375Q624.161376953125 -254.681396484375 656.741455078125 -259.0614013671875Q689.321533203125 -263.44140625 702.96142578125 -267.44140625L748.321533203125 -12.840087890625Q689.1611328125 4.0 634.2808837890625 10.1400146484375Q579.400634765625 16.280029296875 529.96044921875 16.280029296875Q352.280029296875 16.280029296875 260.2598876953125 -67.4400634765625Q168.23974609375 -151.16015625 168.23974609375 -310.96044921875Z M1203.295443359375 19.919921875Q1096.53543359375 19.919921875 1013.07547265625 -16.6600341796875Q929.61551171875 -53.239990234375 882.415560546875 -126.43994140625Q835.215609375 -199.639892578125 835.215609375 -310.39990234375Q835.215609375 -403.35986328125 867.895541015625 -467.159912109375Q900.57547265625 -530.9599609375 958.3753994140625 -570.780029296875Q1016.175326171875 -610.60009765625 1091.2753017578125 -631.7801513671875Q1166.37527734375 -652.960205078125 1251.215365234375 -659.920166015625Q1346.655306640625 -668.360107421875 1404.7152431640625 -677.64013671875Q1462.7751796875 -686.920166015625 1489.475130859375 -705.8201904296875Q1516.17508203125 -724.72021484375 1516.17508203125 -758.880126953125V-763.360107421875Q1516.17508203125 -802.19970703125 1498.1551845703125 -829.0394287109375Q1480.135287109375 -855.879150390625 1446.375521484375 -870.0989990234375Q1412.615755859375 -884.31884765625 1364.25613671875 -884.31884765625Q1316.176546875 -884.31884765625 1278.93680078125 -869.958984375Q1241.6970546875 -855.59912109375 1217.597201171875 -829.8792724609375Q1193.49734765625 -804.159423828125 1183.857455078125 -768.95947265625L867.215609375 -809.999267578125Q889.695345703125 -905.919189453125 954.33523828125 -978.2393798828125Q1018.975130859375 -1050.5595703125 1123.3153408203125 -1091.27978515625Q1227.65555078125 -1132.0 1367.616244140625 -1132.0Q1471.496859375 -1132.0 1561.997103515625 -1107.4798583984375Q1652.49734765625 -1082.959716796875 1720.5173671875 -1035.359619140625Q1788.53738671875 -987.759521484375 1826.717318359375 -918.379638671875Q1864.89725 -848.999755859375 1864.89725 -759.040283203125V0.0H1536.655306640625V-156.56005859375H1527.695345703125Q1497.29519921875 -99.31982421875 1451.1151455078125 -60.099853515625Q1404.935091796875 -20.8798828125 1343.25516015625 -0.47998046875Q1281.575228515625 19.919921875 1203.295443359375 19.919921875ZM1309.53641015625 -211.281005859375Q1368.4958828125 -211.281005859375 1415.8356044921875 -235.080810546875Q1463.175326171875 -258.880615234375 1491.1952236328125 -300.8603515625Q1519.21512109375 -342.840087890625 1519.21512109375 -397.919921875V-505.039306640625Q1504.415072265625 -497.359375 1481.8552578125 -490.2794189453125Q1459.295443359375 -483.199462890625 1432.31570703125 -477.4794921875Q1405.335970703125 -471.759521484375 1378.3161953125 -467.3995361328125Q1351.296419921875 -463.03955078125 1326.816439453125 -459.279541015625Q1275.496615234375 -452.03955078125 1239.51687890625 -434.819580078125Q1203.537142578125 -417.599609375 1184.737337890625 -390.73974609375Q1165.937533203125 -363.8798828125 1165.937533203125 -326.480224609375Q1165.937533203125 -289.00048828125 1184.53738671875 -263.3006591796875Q1203.137240234375 -237.600830078125 1235.376986328125 -224.44091796875Q1267.616732421875 -211.281005859375 1309.53641015625 -211.281005859375Z M2550.112615234375 20.9599609375Q2406.99225390625 20.9599609375 2296.971990234375 -19.7601318359375Q2186.9517265625 -60.480224609375 2117.9315849609375 -136.7403564453125Q2048.911443359375 -213.00048828125 2029.671453125 -319.640625L2353.433416015625 -370.520751953125Q2374.393376953125 -298.281005859375 2424.5531669921875 -260.9810791015625Q2474.71295703125 -223.68115234375 2563.312810546875 -223.68115234375Q2636.232244140625 -223.68115234375 2677.9918876953125 -249.36083984375Q2719.75153125 -275.04052734375 2719.75153125 -317.440185546875Q2719.75153125 -355.679931640625 2686.4716240234375 -379.3597412109375Q2653.191716796875 -403.03955078125 2583.1118828125 -416.719482421875L2387.991765625 -454.639404296875Q2222.31158984375 -486.83935546875 2139.951482421875 -567.659423828125Q2057.591375 -648.4794921875 2057.591375 -777.11962890625Q2057.591375 -889.079833984375 2118.0514580078125 -968.2799072265625Q2178.511541015625 -1047.47998046875 2288.731755859375 -1089.739990234375Q2398.951970703125 -1132.0 2549.11237109375 -1132.0Q2689.192693359375 -1132.0 2792.8729912109375 -1094.4599609375Q2896.5532890625 -1056.919921875 2959.973455078125 -987.6798095703125Q3023.39362109375 -918.439697265625 3042.31354296875 -821.95947265625L2734.151677734375 -773.119384765625Q2718.751775390625 -829.3193359375 2672.4718681640625 -860.4591064453125Q2626.1919609375 -891.598876953125 2555.432439453125 -891.598876953125Q2491.912908203125 -891.598876953125 2448.5932060546875 -866.4991455078125Q2405.27350390625 -841.3994140625 2405.27350390625 -797.999755859375Q2405.27350390625 -764.1201171875 2432.4132744140625 -738.4002685546875Q2459.553044921875 -712.680419921875 2530.952703125 -698.800537109375L2744.793279296875 -658.800537109375Q2911.23346484375 -627.360595703125 2992.9735771484375 -553.0006103515625Q3074.713689453125 -478.640625 3074.713689453125 -356.800537109375Q3074.713689453125 -242.080322265625 3007.053533203125 -157.22021484375Q2939.393376953125 -72.360107421875 2821.2731376953125 -25.7000732421875Q2703.1528984375 20.9599609375 2550.112615234375 20.9599609375Z M3624.647560546875 14.0Q3507.84751171875 14.0 3420.4474873046875 -38.2000732421875Q3333.047462890625 -90.400146484375 3285.1674580078125 -185.16015625Q3237.287453125 -279.920166015625 3237.287453125 -406.47998046875V-1118.0H3586.00962109375V-473.920654296875Q3586.00962109375 -379.881103515625 3634.2493671875 -326.2613525390625Q3682.48911328125 -272.6416015625 3768.328712890625 -272.6416015625Q3825.528419921875 -272.6416015625 3868.1281513671875 -297.3814697265625Q3910.7278828125 -322.121337890625 3934.807716796875 -368.7210693359375Q3958.88755078125 -415.32080078125 3958.88755078125 -479.92041015625V-1118.0H4307.849708984375V0.0H3979.5677265625L3973.4876484375 -282.400146484375H3988.36753125Q3947.00766796875 -148.200439453125 3859.107765625 -67.1002197265625Q3771.20786328125 14.0 3624.647560546875 14.0Z M4521.903453125 0.0V-1118.0H4860.0655625V-914.07958984375H4872.0655625Q4902.305552734375 -1024.919921875 4971.92542578125 -1078.699951171875Q5041.545298828125 -1132.47998046875 5133.18519140625 -1132.47998046875Q5157.74525 -1132.47998046875 5184.105235351562 -1129.199951171875Q5210.465220703125 -1125.919921875 5232.545298828125 -1119.599853515625V-816.23828125Q5207.825083984375 -825.078369140625 5167.084971679687 -829.4583740234375Q5126.344859375 -833.83837890625 5094.144908203125 -833.83837890625Q5030.10511328125 -833.83837890625 4979.145274414062 -805.658447265625Q4928.185435546875 -777.478515625 4899.405528320312 -727.338623046875Q4870.62562109375 -677.19873046875 4870.62562109375 -610.31884765625V0.0Z"/>
  <rect x="5594" y="-348" width="348" height="348" rx="63" fill="#3563C7"/>
</svg>
